<svg width="64" height="64" viewBox="0 0 64 64" fill="none" xmlns="http://www.w3.org/2000/svg">
  <rect x="2" y="2" width="60" height="60" rx="17" fill="#11151E" stroke="#2A3140" stroke-width="2"/>
  <path d="M45.5 19.2C41.9 16.7 37.6 15.5 32.4 15.5C23.5 15.5 17.8 19.6 17.8 26C17.8 32.1 22.1 34.8 31.2 36.7C36.7 37.8 38.7 38.9 38.7 41.2C38.7 43.6 36.2 45 32.1 45C27.7 45 23.6 43.6 19.5 40.7L15 47.1C19.8 50.8 25.6 52.6 32 52.6C41.5 52.6 47.8 48.1 47.8 40.8C47.8 34.8 44 31.8 34.6 29.8C28.8 28.6 26.8 27.6 26.8 25.5C26.8 23.5 29 22.2 32.5 22.2C35.9 22.2 39.1 23.2 42.2 25.2L45.5 19.2Z" fill="url(#paint0_linear)"/>
  <defs><linearGradient id="paint0_linear" x1="17" y1="17" x2="48" y2="51" gradientUnits="userSpaceOnUse"><stop stop-color="#9B8CFF"/><stop offset="1" stop-color="#62D7B5"/></linearGradient></defs>
</svg>
